<mxfile host="app.diagrams.net" modified="2021-06-08T10:55:02.268Z" agent="5.0 (Windows NT 10.0; Win64; x64) AppleWebKit/537.36 (KHTML, like Gecko) Chrome/91.0.4472.77 Safari/537.36" etag="4UDGgTZPl1OpYJa9VZ6d" version="14.7.4" type="github">
  <diagram id="e1svnjk2He2mOXQz4SfX" name="Page-1">
    <mxGraphModel dx="1165" dy="421" grid="0" gridSize="10" guides="1" tooltips="1" connect="1" arrows="1" fold="1" page="0" pageScale="1" pageWidth="827" pageHeight="1169" math="0" shadow="0">
      <root>
        <mxCell id="0" />
        <mxCell id="1" parent="0" />
        <mxCell id="3rxL_w6OVFpMtlmRvImV-87" value="" style="rounded=1;whiteSpace=wrap;html=1;dashed=1;fontSize=12;strokeColor=#990099;" parent="1" vertex="1">
          <mxGeometry x="178" y="48" width="240" height="419" as="geometry" />
        </mxCell>
        <mxCell id="3rxL_w6OVFpMtlmRvImV-86" value="" style="rounded=1;whiteSpace=wrap;html=1;fontSize=12;dashed=1;strokeColor=#990099;" parent="1" vertex="1">
          <mxGeometry x="838" y="47.5" width="130" height="450" as="geometry" />
        </mxCell>
        <mxCell id="3rxL_w6OVFpMtlmRvImV-1" value="GPP &lt;br&gt;Project" style="rounded=0;whiteSpace=wrap;html=1;verticalAlign=middle;horizontal=0;fontSize=17;fillColor=#FFF4C3;" parent="1" vertex="1">
          <mxGeometry x="852" y="57.5" width="44" height="420" as="geometry" />
        </mxCell>
        <mxCell id="3rxL_w6OVFpMtlmRvImV-3" value="&lt;b&gt;DEV&lt;/b&gt;" style="rounded=0;whiteSpace=wrap;html=1;fontSize=12;horizontal=0;verticalAlign=middle;fillColor=#FFF4C3;" parent="1" vertex="1">
          <mxGeometry x="908" y="57.5" width="50" height="418" as="geometry" />
        </mxCell>
        <mxCell id="3rxL_w6OVFpMtlmRvImV-13" value="Scripts" style="rounded=1;whiteSpace=wrap;html=1;fontSize=12;fillColor=#FFB366;" parent="1" vertex="1">
          <mxGeometry x="198" y="73" width="120" height="30" as="geometry" />
        </mxCell>
        <mxCell id="3rxL_w6OVFpMtlmRvImV-19" value="&lt;b&gt;&lt;font style=&quot;font-size: 10px&quot;&gt;Repo 1&lt;/font&gt;&lt;/b&gt;" style="shape=cylinder3;whiteSpace=wrap;html=1;boundedLbl=1;backgroundOutline=1;size=3.8958892822265625;fontSize=12;fillColor=#FF99FF;" parent="1" vertex="1">
          <mxGeometry x="351" y="69" width="47" height="45" as="geometry" />
        </mxCell>
        <mxCell id="3rxL_w6OVFpMtlmRvImV-22" value="Repo Folder Structure" style="text;html=1;fillColor=none;align=center;verticalAlign=middle;whiteSpace=wrap;rounded=0;fontSize=12;strokeColor=#000000;" parent="1" vertex="1">
          <mxGeometry x="574.5" y="6" width="161" height="20" as="geometry" />
        </mxCell>
        <mxCell id="3rxL_w6OVFpMtlmRvImV-23" value="&lt;font style=&quot;font-size: 10px&quot;&gt;Environment&lt;/font&gt;" style="text;html=1;fillColor=none;align=center;verticalAlign=middle;whiteSpace=wrap;rounded=0;fontSize=12;strokeColor=#000000;" parent="1" vertex="1">
          <mxGeometry x="848" y="17.5" width="120" height="20" as="geometry" />
        </mxCell>
        <mxCell id="3rxL_w6OVFpMtlmRvImV-25" value="&lt;font style=&quot;font-size: 11px&quot;&gt;Monitoring Common Repos&lt;/font&gt;" style="text;html=1;fillColor=none;align=center;verticalAlign=middle;whiteSpace=wrap;rounded=0;fontSize=12;strokeColor=#000000;" parent="1" vertex="1">
          <mxGeometry x="219" y="4" width="135" height="35" as="geometry" />
        </mxCell>
        <mxCell id="3rxL_w6OVFpMtlmRvImV-27" value="" style="endArrow=none;dashed=1;html=1;dashPattern=1 3;strokeWidth=2;fontSize=12;" parent="1" edge="1">
          <mxGeometry width="50" height="50" relative="1" as="geometry">
            <mxPoint x="678" y="76.5" as="sourcePoint" />
            <mxPoint x="558" y="76.5" as="targetPoint" />
          </mxGeometry>
        </mxCell>
        <mxCell id="3rxL_w6OVFpMtlmRvImV-29" value="" style="endArrow=none;dashed=1;html=1;dashPattern=1 3;strokeWidth=2;fontSize=12;" parent="1" edge="1">
          <mxGeometry width="50" height="50" relative="1" as="geometry">
            <mxPoint x="640" y="192" as="sourcePoint" />
            <mxPoint x="560" y="192" as="targetPoint" />
          </mxGeometry>
        </mxCell>
        <mxCell id="3rxL_w6OVFpMtlmRvImV-30" value="&lt;font style=&quot;font-size: 10px&quot;&gt;&lt;b&gt;Custom Scripts&lt;/b&gt;&lt;/font&gt;" style="shape=process;whiteSpace=wrap;html=1;backgroundOutline=1;fontSize=12;fillColor=#d5e8d4;strokeColor=#82b366;" parent="1" vertex="1">
          <mxGeometry x="677" y="68.5" width="114" height="20" as="geometry" />
        </mxCell>
        <mxCell id="3rxL_w6OVFpMtlmRvImV-32" value="&lt;span style=&quot;font-size: 10px&quot;&gt;&lt;b&gt;Rules, sites etc&lt;/b&gt;&lt;/span&gt;" style="shape=process;whiteSpace=wrap;html=1;backgroundOutline=1;fontSize=12;fillColor=#d5e8d4;strokeColor=#82b366;" parent="1" vertex="1">
          <mxGeometry x="640" y="182" width="90" height="28" as="geometry" />
        </mxCell>
        <mxCell id="3rxL_w6OVFpMtlmRvImV-54" value="" style="endArrow=none;dashed=1;html=1;dashPattern=1 3;strokeWidth=2;fontSize=12;" parent="1" edge="1">
          <mxGeometry width="50" height="50" relative="1" as="geometry">
            <mxPoint x="619" y="273" as="sourcePoint" />
            <mxPoint x="569" y="273" as="targetPoint" />
          </mxGeometry>
        </mxCell>
        <mxCell id="3rxL_w6OVFpMtlmRvImV-55" value="&lt;span style=&quot;font-size: 10px&quot;&gt;&lt;b&gt;Default Alerts&lt;/b&gt;&lt;/span&gt;" style="shape=process;whiteSpace=wrap;html=1;backgroundOutline=1;fontSize=12;fillColor=#d5e8d4;strokeColor=#82b366;" parent="1" vertex="1">
          <mxGeometry x="619" y="263" width="90" height="20" as="geometry" />
        </mxCell>
        <mxCell id="3rxL_w6OVFpMtlmRvImV-57" value="&lt;font style=&quot;font-size: 10px&quot;&gt;&lt;b&gt;.sh&lt;/b&gt;&lt;/font&gt;" style="shape=process;whiteSpace=wrap;html=1;backgroundOutline=1;fontSize=12;fillColor=#d5e8d4;strokeColor=#82b366;" parent="1" vertex="1">
          <mxGeometry x="718" y="119.5" width="90" height="20" as="geometry" />
        </mxCell>
        <mxCell id="3rxL_w6OVFpMtlmRvImV-58" value="&lt;font style=&quot;font-size: 10px&quot;&gt;&lt;b&gt;README.md&lt;/b&gt;&lt;/font&gt;" style="shape=process;whiteSpace=wrap;html=1;backgroundOutline=1;fontSize=12;fillColor=#d5e8d4;strokeColor=#82b366;" parent="1" vertex="1">
          <mxGeometry x="718" y="149.5" width="90" height="20" as="geometry" />
        </mxCell>
        <mxCell id="3rxL_w6OVFpMtlmRvImV-59" value="" style="endArrow=none;dashed=1;html=1;fontSize=12;entryX=0;entryY=0.5;entryDx=0;entryDy=0;" parent="1" target="3rxL_w6OVFpMtlmRvImV-57" edge="1">
          <mxGeometry width="50" height="50" relative="1" as="geometry">
            <mxPoint x="698" y="129.5" as="sourcePoint" />
            <mxPoint x="588" y="209.5" as="targetPoint" />
          </mxGeometry>
        </mxCell>
        <mxCell id="3rxL_w6OVFpMtlmRvImV-60" value="" style="endArrow=none;dashed=1;html=1;fontSize=12;entryX=0;entryY=0.5;entryDx=0;entryDy=0;" parent="1" edge="1">
          <mxGeometry width="50" height="50" relative="1" as="geometry">
            <mxPoint x="698" y="159.5" as="sourcePoint" />
            <mxPoint x="718" y="159.5" as="targetPoint" />
          </mxGeometry>
        </mxCell>
        <mxCell id="3rxL_w6OVFpMtlmRvImV-61" value="" style="endArrow=none;dashed=1;html=1;fontSize=12;" parent="1" edge="1">
          <mxGeometry width="50" height="50" relative="1" as="geometry">
            <mxPoint x="698" y="159.5" as="sourcePoint" />
            <mxPoint x="698" y="89.5" as="targetPoint" />
          </mxGeometry>
        </mxCell>
        <mxCell id="3rxL_w6OVFpMtlmRvImV-70" value="&lt;span style=&quot;font-size: 10px&quot;&gt;&lt;b&gt;Default Dashboards&lt;/b&gt;&lt;/span&gt;" style="shape=process;whiteSpace=wrap;html=1;backgroundOutline=1;fontSize=12;fillColor=#d5e8d4;strokeColor=#82b366;" parent="1" vertex="1">
          <mxGeometry x="619" y="385" width="110" height="33" as="geometry" />
        </mxCell>
        <mxCell id="3rxL_w6OVFpMtlmRvImV-72" value="" style="endArrow=none;dashed=1;html=1;fontSize=12;" parent="1" edge="1">
          <mxGeometry width="50" height="50" relative="1" as="geometry">
            <mxPoint x="556" y="398" as="sourcePoint" />
            <mxPoint x="616" y="398" as="targetPoint" />
          </mxGeometry>
        </mxCell>
        <mxCell id="3rxL_w6OVFpMtlmRvImV-75" value="" style="html=1;shadow=0;dashed=0;align=center;verticalAlign=middle;shape=mxgraph.arrows2.arrow;dy=0.6;dx=40;notch=0;fontSize=12;" parent="1" vertex="1">
          <mxGeometry x="438" y="68.5" width="101" height="30" as="geometry" />
        </mxCell>
        <mxCell id="3rxL_w6OVFpMtlmRvImV-77" value="" style="shape=umlActor;verticalLabelPosition=bottom;verticalAlign=top;html=1;outlineConnect=0;fontSize=12;" parent="1" vertex="1">
          <mxGeometry x="360" y="17.5" width="10" height="20" as="geometry" />
        </mxCell>
        <mxCell id="0w0egjdCd1siMiY4N0EC-2" value="" style="html=1;shadow=0;dashed=0;align=center;verticalAlign=middle;shape=mxgraph.arrows2.arrow;dy=0.6;dx=40;notch=0;fontSize=12;" vertex="1" parent="1">
          <mxGeometry x="435" y="150" width="124" height="44" as="geometry" />
        </mxCell>
        <mxCell id="0w0egjdCd1siMiY4N0EC-3" value="&lt;b&gt;&lt;font style=&quot;font-size: 10px&quot;&gt;Repo 4&lt;/font&gt;&lt;/b&gt;" style="shape=cylinder3;whiteSpace=wrap;html=1;boundedLbl=1;backgroundOutline=1;size=3.8958892822265625;fontSize=12;fillColor=#FF99FF;" vertex="1" parent="1">
          <mxGeometry x="349" y="263" width="50" height="50" as="geometry" />
        </mxCell>
        <mxCell id="0w0egjdCd1siMiY4N0EC-4" value="Alerts" style="rounded=1;whiteSpace=wrap;html=1;fontSize=12;fillColor=#FFB366;" vertex="1" parent="1">
          <mxGeometry x="194" y="273" width="120" height="30" as="geometry" />
        </mxCell>
        <mxCell id="0w0egjdCd1siMiY4N0EC-5" value="&lt;b&gt;&lt;font style=&quot;font-size: 10px&quot;&gt;Repo 5&lt;/font&gt;&lt;/b&gt;" style="shape=cylinder3;whiteSpace=wrap;html=1;boundedLbl=1;backgroundOutline=1;size=3.8958892822265625;fontSize=12;fillColor=#FF99FF;" vertex="1" parent="1">
          <mxGeometry x="349" y="347" width="50" height="50" as="geometry" />
        </mxCell>
        <mxCell id="0w0egjdCd1siMiY4N0EC-6" value="Dashboards" style="rounded=1;whiteSpace=wrap;html=1;fontSize=12;fillColor=#FFB366;" vertex="1" parent="1">
          <mxGeometry x="198" y="355" width="120" height="30" as="geometry" />
        </mxCell>
        <mxCell id="0w0egjdCd1siMiY4N0EC-7" value="" style="html=1;shadow=0;dashed=0;align=center;verticalAlign=middle;shape=mxgraph.arrows2.arrow;dy=0.6;dx=40;notch=0;fontSize=12;" vertex="1" parent="1">
          <mxGeometry x="441" y="267" width="95" height="29" as="geometry" />
        </mxCell>
        <mxCell id="0w0egjdCd1siMiY4N0EC-8" value="" style="html=1;shadow=0;dashed=0;align=center;verticalAlign=middle;shape=mxgraph.arrows2.arrow;dy=0.6;dx=40;notch=0;fontSize=12;" vertex="1" parent="1">
          <mxGeometry x="438" y="385" width="95" height="25" as="geometry" />
        </mxCell>
        <mxCell id="0w0egjdCd1siMiY4N0EC-9" value="" style="rounded=1;whiteSpace=wrap;html=1;dashed=1;fontSize=12;strokeColor=#990099;" vertex="1" parent="1">
          <mxGeometry x="984" y="57" width="240" height="419" as="geometry" />
        </mxCell>
        <mxCell id="0w0egjdCd1siMiY4N0EC-10" value="All Projects&lt;br&gt;" style="rounded=0;whiteSpace=wrap;html=1;verticalAlign=middle;horizontal=0;fontSize=17;fillColor=#FFF4C3;" vertex="1" parent="1">
          <mxGeometry x="85" y="51" width="44" height="420" as="geometry" />
        </mxCell>
        <mxCell id="0w0egjdCd1siMiY4N0EC-11" value="Alerts" style="rounded=1;whiteSpace=wrap;html=1;fontSize=12;fillColor=#FFB366;" vertex="1" parent="1">
          <mxGeometry x="1004" y="113.5" width="120" height="30" as="geometry" />
        </mxCell>
        <mxCell id="0w0egjdCd1siMiY4N0EC-12" value="&lt;b&gt;&lt;font style=&quot;font-size: 10px&quot;&gt;Repo 1&lt;/font&gt;&lt;/b&gt;" style="shape=cylinder3;whiteSpace=wrap;html=1;boundedLbl=1;backgroundOutline=1;size=3.8958892822265625;fontSize=12;fillColor=#FF99FF;" vertex="1" parent="1">
          <mxGeometry x="1155" y="100.5" width="50" height="50" as="geometry" />
        </mxCell>
        <mxCell id="0w0egjdCd1siMiY4N0EC-13" value="" style="html=1;shadow=0;dashed=0;align=center;verticalAlign=middle;shape=mxgraph.arrows2.arrow;dy=0.6;dx=40;notch=0;fontSize=12;" vertex="1" parent="1">
          <mxGeometry x="1246" y="107.5" width="95" height="25" as="geometry" />
        </mxCell>
        <mxCell id="0w0egjdCd1siMiY4N0EC-14" value="&lt;span style=&quot;font-size: 10px&quot;&gt;&lt;b&gt;Custom Alerts&lt;/b&gt;&lt;/span&gt;" style="shape=process;whiteSpace=wrap;html=1;backgroundOutline=1;fontSize=12;fillColor=#d5e8d4;strokeColor=#82b366;" vertex="1" parent="1">
          <mxGeometry x="1429.5" y="100.5" width="110" height="33" as="geometry" />
        </mxCell>
        <mxCell id="0w0egjdCd1siMiY4N0EC-15" value="" style="endArrow=none;dashed=1;html=1;fontSize=12;" edge="1" parent="1">
          <mxGeometry width="50" height="50" relative="1" as="geometry">
            <mxPoint x="1366.5" y="113.5" as="sourcePoint" />
            <mxPoint x="1426.5" y="113.5" as="targetPoint" />
          </mxGeometry>
        </mxCell>
        <mxCell id="0w0egjdCd1siMiY4N0EC-16" value="Yaml Files" style="text;html=1;strokeColor=none;fillColor=none;align=center;verticalAlign=middle;whiteSpace=wrap;rounded=0;fontSize=12;" vertex="1" parent="1">
          <mxGeometry x="1508" y="110" width="130" height="20" as="geometry" />
        </mxCell>
        <mxCell id="0w0egjdCd1siMiY4N0EC-19" value="Dashboards" style="rounded=1;whiteSpace=wrap;html=1;fontSize=12;fillColor=#FFB366;" vertex="1" parent="1">
          <mxGeometry x="1003.5" y="213.5" width="120" height="30" as="geometry" />
        </mxCell>
        <mxCell id="0w0egjdCd1siMiY4N0EC-20" value="&lt;b&gt;&lt;font style=&quot;font-size: 10px&quot;&gt;Repo 2&lt;/font&gt;&lt;/b&gt;" style="shape=cylinder3;whiteSpace=wrap;html=1;boundedLbl=1;backgroundOutline=1;size=3.8958892822265625;fontSize=12;fillColor=#FF99FF;" vertex="1" parent="1">
          <mxGeometry x="1154.5" y="200.5" width="50" height="50" as="geometry" />
        </mxCell>
        <mxCell id="0w0egjdCd1siMiY4N0EC-21" value="" style="html=1;shadow=0;dashed=0;align=center;verticalAlign=middle;shape=mxgraph.arrows2.arrow;dy=0.6;dx=40;notch=0;fontSize=12;" vertex="1" parent="1">
          <mxGeometry x="1246" y="207.5" width="95" height="25" as="geometry" />
        </mxCell>
        <mxCell id="0w0egjdCd1siMiY4N0EC-22" value="&lt;span style=&quot;font-size: 10px&quot;&gt;&lt;b&gt;Custom Dashboards&lt;/b&gt;&lt;/span&gt;" style="shape=process;whiteSpace=wrap;html=1;backgroundOutline=1;fontSize=12;fillColor=#d5e8d4;strokeColor=#82b366;" vertex="1" parent="1">
          <mxGeometry x="1429.5" y="203.5" width="110" height="33" as="geometry" />
        </mxCell>
        <mxCell id="0w0egjdCd1siMiY4N0EC-23" value="" style="endArrow=none;dashed=1;html=1;fontSize=12;" edge="1" parent="1">
          <mxGeometry width="50" height="50" relative="1" as="geometry">
            <mxPoint x="1366.5" y="216.5" as="sourcePoint" />
            <mxPoint x="1426.5" y="216.5" as="targetPoint" />
          </mxGeometry>
        </mxCell>
        <mxCell id="0w0egjdCd1siMiY4N0EC-24" value="Json Files" style="text;html=1;strokeColor=none;fillColor=none;align=center;verticalAlign=middle;whiteSpace=wrap;rounded=0;fontSize=12;" vertex="1" parent="1">
          <mxGeometry x="1505" y="210" width="130" height="20" as="geometry" />
        </mxCell>
        <mxCell id="0w0egjdCd1siMiY4N0EC-25" value="Rules" style="rounded=1;whiteSpace=wrap;html=1;fontSize=12;fillColor=#FFB366;" vertex="1" parent="1">
          <mxGeometry x="198" y="133" width="120" height="30" as="geometry" />
        </mxCell>
        <mxCell id="0w0egjdCd1siMiY4N0EC-26" value="&lt;b&gt;&lt;font style=&quot;font-size: 10px&quot;&gt;Repo 2&lt;/font&gt;&lt;/b&gt;" style="shape=cylinder3;whiteSpace=wrap;html=1;boundedLbl=1;backgroundOutline=1;size=3.8958892822265625;fontSize=12;fillColor=#FF99FF;" vertex="1" parent="1">
          <mxGeometry x="350" y="123" width="49" height="48" as="geometry" />
        </mxCell>
        <mxCell id="0w0egjdCd1siMiY4N0EC-27" value="&lt;b&gt;&lt;font style=&quot;font-size: 10px&quot;&gt;Repo 3&lt;/font&gt;&lt;/b&gt;" style="shape=cylinder3;whiteSpace=wrap;html=1;boundedLbl=1;backgroundOutline=1;size=3.8958892822265625;fontSize=12;fillColor=#FF99FF;" vertex="1" parent="1">
          <mxGeometry x="1156.5" y="297.5" width="50" height="50" as="geometry" />
        </mxCell>
        <mxCell id="0w0egjdCd1siMiY4N0EC-28" value="Manifest" style="rounded=1;whiteSpace=wrap;html=1;fontSize=12;fillColor=#FFB366;" vertex="1" parent="1">
          <mxGeometry x="1001.5" y="309.5" width="120" height="30" as="geometry" />
        </mxCell>
        <mxCell id="0w0egjdCd1siMiY4N0EC-30" value="" style="endArrow=none;dashed=1;html=1;dashPattern=1 3;strokeWidth=2;fontSize=12;" edge="1" parent="1">
          <mxGeometry width="50" height="50" relative="1" as="geometry">
            <mxPoint x="1445" y="307" as="sourcePoint" />
            <mxPoint x="1365" y="307" as="targetPoint" />
          </mxGeometry>
        </mxCell>
        <mxCell id="0w0egjdCd1siMiY4N0EC-31" value="&lt;span style=&quot;font-size: 10px&quot;&gt;&lt;b&gt;XMl Files&lt;/b&gt;&lt;/span&gt;" style="shape=process;whiteSpace=wrap;html=1;backgroundOutline=1;fontSize=12;fillColor=#d5e8d4;strokeColor=#82b366;" vertex="1" parent="1">
          <mxGeometry x="1449.5" y="297.5" width="90" height="20" as="geometry" />
        </mxCell>
        <mxCell id="0w0egjdCd1siMiY4N0EC-32" value="" style="html=1;shadow=0;dashed=0;align=center;verticalAlign=middle;shape=mxgraph.arrows2.arrow;dy=0.6;dx=40;notch=0;fontSize=12;" vertex="1" parent="1">
          <mxGeometry x="1246" y="301.5" width="95" height="25" as="geometry" />
        </mxCell>
        <mxCell id="0w0egjdCd1siMiY4N0EC-33" value="Ansible Sites" style="rounded=1;whiteSpace=wrap;html=1;fontSize=12;fillColor=#FFB366;" vertex="1" parent="1">
          <mxGeometry x="198" y="198" width="120" height="30" as="geometry" />
        </mxCell>
        <mxCell id="0w0egjdCd1siMiY4N0EC-34" value="&lt;b&gt;&lt;font style=&quot;font-size: 10px&quot;&gt;Repo 3&lt;/font&gt;&lt;/b&gt;" style="shape=cylinder3;whiteSpace=wrap;html=1;boundedLbl=1;backgroundOutline=1;size=3.8958892822265625;fontSize=12;fillColor=#FF99FF;" vertex="1" parent="1">
          <mxGeometry x="349" y="188" width="50" height="50" as="geometry" />
        </mxCell>
        <mxCell id="0w0egjdCd1siMiY4N0EC-36" value="" style="shape=cross;whiteSpace=wrap;html=1;fillColor=#f8cecc;strokeColor=#b85450;" vertex="1" parent="1">
          <mxGeometry x="756" y="230" width="52" height="55" as="geometry" />
        </mxCell>
        <mxCell id="0w0egjdCd1siMiY4N0EC-40" value="" style="endArrow=none;html=1;" edge="1" parent="1">
          <mxGeometry width="50" height="50" relative="1" as="geometry">
            <mxPoint x="91" y="543" as="sourcePoint" />
            <mxPoint x="1605" y="543" as="targetPoint" />
          </mxGeometry>
        </mxCell>
        <mxCell id="0w0egjdCd1siMiY4N0EC-41" value="" style="endArrow=none;html=1;" edge="1" parent="1">
          <mxGeometry width="50" height="50" relative="1" as="geometry">
            <mxPoint x="1606" y="544" as="sourcePoint" />
            <mxPoint x="1606" y="473" as="targetPoint" />
          </mxGeometry>
        </mxCell>
        <mxCell id="0w0egjdCd1siMiY4N0EC-42" value="" style="endArrow=none;html=1;" edge="1" parent="1">
          <mxGeometry width="50" height="50" relative="1" as="geometry">
            <mxPoint x="93" y="542" as="sourcePoint" />
            <mxPoint x="93" y="490" as="targetPoint" />
          </mxGeometry>
        </mxCell>
        <mxCell id="0w0egjdCd1siMiY4N0EC-43" value="" style="endArrow=classic;html=1;" edge="1" parent="1">
          <mxGeometry width="50" height="50" relative="1" as="geometry">
            <mxPoint x="879" y="544" as="sourcePoint" />
            <mxPoint x="879" y="594.4815063476562" as="targetPoint" />
          </mxGeometry>
        </mxCell>
        <mxCell id="0w0egjdCd1siMiY4N0EC-45" value="Azure GITOPS Framework" style="shape=parallelogram;perimeter=parallelogramPerimeter;whiteSpace=wrap;html=1;fixedSize=1;" vertex="1" parent="1">
          <mxGeometry x="816" y="595" width="120" height="60" as="geometry" />
        </mxCell>
        <mxCell id="0w0egjdCd1siMiY4N0EC-46" value="" style="endArrow=classic;html=1;" edge="1" parent="1">
          <mxGeometry width="50" height="50" relative="1" as="geometry">
            <mxPoint x="880" y="655" as="sourcePoint" />
            <mxPoint x="880" y="705.4815063476562" as="targetPoint" />
          </mxGeometry>
        </mxCell>
        <mxCell id="0w0egjdCd1siMiY4N0EC-47" value="Grafana Cloud" style="ellipse;shape=cloud;whiteSpace=wrap;html=1;" vertex="1" parent="1">
          <mxGeometry x="826" y="696" width="120" height="84" as="geometry" />
        </mxCell>
      </root>
    </mxGraphModel>
  </diagram>
</mxfile>
